<?xml version="1.0" encoding="utf-8"?>
<!-- Generator: Adobe Illustrator 24.0.1, SVG Export Plug-In . SVG Version: 6.00 Build 0)  -->
<svg version="1.1" id="Layer_1" xmlns="http://www.w3.org/2000/svg" xmlns:xlink="http://www.w3.org/1999/xlink" x="0px" y="0px"
	 viewBox="0 0 900 700" style="enable-background:new 0 0 900 700;" xml:space="preserve">
<style type="text/css">
	.st0{fill:#B4B4B4;}
	.st1{fill:#FF78FF;}
	.st2{fill:none;stroke:#787878;}
	.st3{enable-background:new    ;}
	.st4{fill:#969696;}
</style>
<g>
	
		<rect id="undefined_-_Şengezer_et_xA0_al._x2C__xA0_2002_x2C__Measure_stretched" x="882.4" y="370.7" class="st0" width="17.6" height="329.3"/>
	
		<rect id="undefined_-_Siminoski__x26__Bain_x2C__xA0_1993_x2C__Measure_stretched" x="863.8" y="355.3" class="st0" width="17.6" height="344.7"/>
	
		<rect id="undefined_-_Son_et_xA0_al._x2C__xA0_2003_x2C__Measure_stretched" x="845.1" y="348" class="st0" width="17.6" height="352"/>
	
		<rect id="undefined_-_Promodu_et_xA0_al._x2C__xA0_2007_x2C__Measure_stretched" x="826.5" y="301.1" class="st0" width="17.6" height="398.9"/>
	
		<rect id="undefined_-_Chrouser_et_xA0_al._x2C__xA0_2013_x2C__Measure_stretched" x="807.8" y="278.3" class="st0" width="17.6" height="421.7"/>
	
		<rect id="undefined_-_Mehraban_et_xA0_al._x2C__xA0_2007_x2C__Measure_stretched" x="789.2" y="275.4" class="st0" width="17.6" height="424.6"/>
	
		<rect id="undefined_-_Choi_et_xA0_al._x2C__xA0_2011_x2C__Measure_stretched" x="770.5" y="271" class="st0" width="17.6" height="429"/>
	
		<rect id="undefined_-_Park_et_xA0_al._x2C__xA0_1998_x2C__Measure_erect" x="751.9" y="264.4" class="st0" width="17.6" height="435.6"/>
	
		<rect id="undefined_-_Spyropoulos_et_xA0_al._x2C__xA0_2002_x2C__Measure_stretched" x="733.2" y="253.8" class="st0" width="17.6" height="446.2"/>
	
		<rect id="undefined_-_Spyropoulos_et_x2009_al._2005_x2C__Measure_stretched" x="714.6" y="253.4" class="st0" width="17.6" height="446.6"/>
	
		<rect id="undefined_-_Wessells_et_xA0_al._x2C__xA0_1996_x2C__Measure_stretched" x="695.9" y="243.5" class="st0" width="17.6" height="456.5"/>
	
		<rect id="undefined_-_Chen_et_xA0_al._x2C__xA0_2000_x2C__Measure_stretched" x="658.7" y="241.7" class="st0" width="17.6" height="458.3"/>
	
		<rect id="undefined_-_Ponchietti_et_xA0_al._x2C__xA0_2001_x2C__Measure_stretched" x="677.3" y="241.7" class="st0" width="17.6" height="458.3"/>
	
		<rect id="undefined_-_Sengezer_et_x2009_al._2002_x2C__Measure_erect" x="621.4" y="233.2" class="st0" width="17.6" height="466.8"/>
	
		<rect id="undefined_-_Şengezer_et_xA0_al._x2C__xA0_2002_x2C__Measure_erect" x="640" y="233.2" class="st0" width="17.6" height="466.8"/>
	
		<rect id="undefined_-_Wessells_et_xA0_al._x2C__xA0_1996_x2C__Measure_erect" x="602.7" y="227.4" class="st0" width="17.6" height="472.6"/>
	
		<rect id="undefined_-_Kamel_et_xA0_al._x2C__xA0_2009_x2C__Measure_stretched" x="584.1" y="227" class="st0" width="17.6" height="473"/>
	
		<rect id="undefined_-_Promodu_et_x2009_al._2007_x2C__Measure_erect" x="546.8" y="225.9" class="st0" width="17.6" height="474.1"/>
	
		<rect id="undefined_-_Promodu_et_xA0_al._x2C__xA0_2007_x2C__Measure_erect" x="565.4" y="225.9" class="st0" width="17.6" height="474.1"/>
	
		<rect id="undefined_-_Shah__x26__Christopher_x2C__xA0_2002_x2C__Measure_stretched" x="528.1" y="223.3" class="st0" width="17.6" height="476.7"/>
	
		<rect id="undefined_-_Promodu_et_xA0_al._x2C__xA0_2007_x2C__Self-report_erect" x="509.5" y="223" class="st1" width="17.6" height="477"/>
	
		<rect id="undefined_-_Schonfeld__x26__Beebe_x2C__xA0_1942_x2C__Measure_stretched" x="490.9" y="220.4" class="st0" width="17.6" height="479.6"/>
	
		<rect id="undefined_-_Savoie_et_xA0_al._x2C__xA0_2003_x2C__Measure_stretched" x="472.2" y="205.4" class="st0" width="17.6" height="494.6"/>
	
		<rect id="undefined_-_Awwad_et_xA0_al._x2C__xA0_2005_x2C__Measure_stretched" x="453.6" y="205" class="st0" width="17.6" height="495"/>
	
		<rect id="undefined_-_Chen_et_xA0_al._x2C__xA0_2000_x2C__Measure_erect" x="434.9" y="201.3" class="st0" width="17.6" height="498.7"/>
	
		<rect id="undefined_-_Aslan_et_xA0_al._x2C__xA0_2011_x2C__Measure_stretched" x="416.3" y="197.7" class="st0" width="17.6" height="502.3"/>
	
		<rect id="undefined_-_Yafi_et_xA0_al._x2C__xA0_2018_x2C__Measure_erect" x="397.6" y="196.6" class="st0" width="17.6" height="503.4"/>
	
		<rect id="undefined_-_Shalaby_et_xA0_al._x2C__xA0_2015_x2C__Measure_stretched" x="379" y="192.5" class="st0" width="17.6" height="507.5"/>
	
		<rect id="undefined_-_Söylemez_et_x2009_al._2011_x2C__Measure_stretched" x="341.7" y="187.4" class="st0" width="17.6" height="512.6"/>
	
		<rect id="undefined_-_Sӧylemez_et_xA0_al._x2C__xA0_2012_x2C__Measure_stretched" x="360.3" y="187.4" class="st0" width="17.6" height="512.6"/>
	
		<rect id="undefined_-_Yafi_et_xA0_al._x2C__xA0_2018_x2C__Measure_stretched" x="323" y="186.7" class="st0" width="17.6" height="513.3"/>
	
		<rect id="undefined_-_Herbenick_et_xA0_al._x2C__xA0_2014_x2C__Self-report_erect" x="304.4" y="181.2" class="st1" width="17.6" height="518.8"/>
	
		<rect id="undefined_-_Khan_et_xA0_al._x2C__xA0_2012_x2C__Measure_stretched" x="285.8" y="175.7" class="st0" width="17.6" height="524.3"/>
	
		<rect id="undefined_-_Schneider_et_xA0_al._x2C__xA0_2001_x2C__Measure_erect" x="267.1" y="169.1" class="st0" width="17.6" height="530.9"/>
	
		<rect id="undefined_-_da_Ros_et_xA0_al._x2C__xA0_1994_x2C__Measure_erect" x="248.5" y="168.3" class="st0" width="17.6" height="531.7"/>
	
		<rect id="undefined_-_Ansell_Research_x2C__xA0_2001_x2C__Measure_erect" x="229.8" y="152.6" class="st0" width="17.6" height="547.4"/>
	<rect id="undefined_-_Salama_x2C__xA0_2018_x2C__Measure_erect" x="211.2" y="148.5" class="st0" width="17.6" height="551.5"/>
	
		<rect id="undefined_-_Harding__x26__Golombok_x2C__xA0_2002_x2C__Self-report_erect" x="192.5" y="140.8" class="st1" width="17.6" height="559.2"/>
	<rect id="undefined_-_Sparling_x2C__xA0_1997_x2C__Measure_erect" x="173.9" y="136.4" class="st0" width="17.6" height="563.6"/>
	
		<rect id="undefined_-_Smith_et_xA0_al._x2C__xA0_1998_x2C__Self-report_erect" x="155.2" y="124" class="st1" width="17.6" height="576"/>
	
		<rect id="undefined_-_Jamison__x26__Gebhard_x2C__xA0_1988_x2C__Self-report_erect" x="136.6" y="121.8" class="st1" width="17.6" height="578.2"/>
	
		<rect id="undefined_-_Richters_et_xA0_al._x2C__xA0_1995_x2C__Self-report_erect" x="117.9" y="113.3" class="st1" width="17.6" height="586.7"/>
	
		<rect id="undefined_-_Bogaert__x26__Hershberger_x2C__xA0_1999_x2C__Self-report_erect" x="99.3" y="113.2" class="st1" width="17.6" height="586.8"/>
	
		<rect id="undefined_-_King_et_xA0_al._x2C__xA0_2019_x2C__Self-report_erect" x="80.7" y="103.1" class="st1" width="17.6" height="596.9"/>
	<rect id="undefined_-_Coxon_x2C__xA0_1996_x2C__Self-report_erect" x="62" y="92.8" class="st1" width="17.6" height="607.2"/>
	
		<rect id="undefined_-_Bondil_et_xA0_al._x2C__xA0_1992_x2C__Measure_stretched" x="43.4" y="86.2" class="st0" width="17.6" height="613.8"/>
	
		<rect id="undefined_-_Savoie_et_x2009_al._2003_x2C__Measure_stretched" x="24.7" y="58.3" class="st0" width="17.6" height="641.7"/>
</g>
<path class="st2" d="M14.4,700h6.5V40h-6.5"/>
<line class="st2" x1="20.4" y1="700" x2="14.4" y2="700"/>
<line class="st2" x1="20.4" y1="626.7" x2="14.4" y2="626.7"/>
<g class="st3">
	<path class="st4" d="M10.8,629v0.8H6.1c0-0.2,0-0.4,0.1-0.6c0.1-0.3,0.3-0.6,0.6-1s0.6-0.7,1.1-1.1c0.8-0.6,1.3-1.1,1.6-1.5
		c0.3-0.4,0.4-0.7,0.4-1.1c0-0.3-0.1-0.6-0.4-0.9c-0.2-0.2-0.6-0.4-1-0.4c-0.4,0-0.8,0.1-1,0.4s-0.4,0.6-0.4,1.1l-0.9-0.1
		c0.1-0.7,0.3-1.2,0.7-1.5c0.4-0.4,0.9-0.5,1.6-0.5c0.7,0,1.2,0.2,1.6,0.6s0.6,0.9,0.6,1.4c0,0.3-0.1,0.6-0.2,0.8s-0.3,0.6-0.6,0.9
		s-0.7,0.7-1.4,1.3c-0.5,0.4-0.9,0.7-1,0.9c-0.1,0.2-0.3,0.3-0.4,0.5H10.8z"/>
</g>
<line class="st2" x1="20.4" y1="553.3" x2="14.4" y2="553.3"/>
<g class="st3">
	<path class="st4" d="M9,556.5v-1.7H5.9V554l3.3-4.6h0.7v4.6h1v0.8h-1v1.7H9z M9,554v-3.2L6.8,554H9z"/>
</g>
<line class="st2" x1="20.4" y1="480" x2="14.4" y2="480"/>
<g class="st3">
	<path class="st4" d="M10.8,477.8l-0.9,0.1c-0.1-0.3-0.2-0.6-0.3-0.8c-0.2-0.3-0.5-0.4-0.9-0.4c-0.3,0-0.5,0.1-0.7,0.2
		c-0.3,0.2-0.5,0.5-0.7,0.9s-0.2,0.9-0.2,1.7c0.2-0.3,0.5-0.6,0.8-0.7s0.6-0.2,1-0.2c0.6,0,1.1,0.2,1.5,0.6c0.4,0.4,0.6,1,0.6,1.7
		c0,0.4-0.1,0.9-0.3,1.3c-0.2,0.4-0.5,0.7-0.8,0.9s-0.7,0.3-1.2,0.3c-0.7,0-1.3-0.3-1.8-0.8c-0.5-0.5-0.7-1.4-0.7-2.7
		c0-1.4,0.3-2.4,0.8-3c0.4-0.5,1-0.8,1.8-0.8c0.6,0,1,0.2,1.4,0.5S10.7,477.2,10.8,477.8z M7.2,480.9c0,0.3,0.1,0.6,0.2,0.9
		s0.3,0.5,0.5,0.6c0.2,0.1,0.5,0.2,0.7,0.2c0.4,0,0.7-0.1,1-0.4s0.4-0.7,0.4-1.2c0-0.5-0.1-0.9-0.4-1.2c-0.3-0.3-0.6-0.4-1-0.4
		c-0.4,0-0.7,0.1-1,0.4C7.3,480,7.2,480.4,7.2,480.9z"/>
</g>
<line class="st2" x1="20.4" y1="406.7" x2="14.4" y2="406.7"/>
<g class="st3">
	<path class="st4" d="M7.6,406c-0.4-0.1-0.6-0.3-0.8-0.6s-0.3-0.5-0.3-0.9c0-0.5,0.2-1,0.6-1.3s0.9-0.5,1.5-0.5
		c0.6,0,1.1,0.2,1.5,0.5c0.4,0.4,0.6,0.8,0.6,1.3c0,0.3-0.1,0.6-0.3,0.9c-0.2,0.2-0.4,0.4-0.8,0.6c0.4,0.1,0.8,0.4,1,0.7
		s0.3,0.7,0.3,1.1c0,0.6-0.2,1.1-0.6,1.5s-1,0.6-1.7,0.6s-1.3-0.2-1.7-0.6c-0.4-0.4-0.6-0.9-0.6-1.6c0-0.5,0.1-0.9,0.4-1.2
		C6.8,406.3,7.1,406.1,7.6,406z M7.1,407.8c0,0.3,0.1,0.5,0.2,0.7s0.3,0.4,0.5,0.5c0.2,0.1,0.5,0.2,0.8,0.2c0.4,0,0.8-0.1,1-0.4
		s0.4-0.6,0.4-1c0-0.4-0.1-0.8-0.4-1s-0.6-0.4-1.1-0.4c-0.4,0-0.8,0.1-1,0.4S7.1,407.4,7.1,407.8z M7.4,404.5c0,0.3,0.1,0.6,0.3,0.8
		s0.5,0.3,0.8,0.3c0.3,0,0.6-0.1,0.8-0.3c0.2-0.2,0.3-0.5,0.3-0.8c0-0.3-0.1-0.6-0.3-0.8c-0.2-0.2-0.5-0.3-0.8-0.3
		c-0.3,0-0.6,0.1-0.8,0.3S7.4,404.2,7.4,404.5z"/>
</g>
<line class="st2" x1="20.4" y1="333.3" x2="14.4" y2="333.3"/>
<g class="st3">
	<path class="st4" d="M4,336.5H3.1v-5.6c-0.2,0.2-0.5,0.4-0.8,0.6s-0.7,0.4-0.9,0.5v-0.8c0.5-0.2,0.9-0.5,1.3-0.8s0.6-0.6,0.8-1H4
		V336.5z"/>
	<path class="st4" d="M6.2,333c0-0.8,0.1-1.5,0.3-2c0.2-0.5,0.4-0.9,0.8-1.2s0.8-0.4,1.3-0.4c0.4,0,0.7,0.1,1,0.2
		c0.3,0.2,0.5,0.4,0.7,0.7c0.2,0.3,0.3,0.6,0.4,1.1c0.1,0.4,0.2,1,0.2,1.7c0,0.8-0.1,1.5-0.3,2c-0.2,0.5-0.4,0.9-0.8,1.2
		c-0.3,0.3-0.8,0.4-1.3,0.4c-0.7,0-1.2-0.2-1.6-0.7C6.4,335.3,6.2,334.3,6.2,333z M7.1,333c0,1.2,0.1,2,0.4,2.3
		c0.3,0.4,0.6,0.6,1,0.6s0.7-0.2,1-0.6s0.4-1.2,0.4-2.3c0-1.2-0.1-2-0.4-2.3s-0.6-0.6-1-0.6c-0.4,0-0.7,0.2-1,0.5
		C7.3,331,7.1,331.8,7.1,333z"/>
</g>
<line class="st2" x1="20.4" y1="260" x2="14.4" y2="260"/>
<g class="st3">
	<path class="st4" d="M4,263.2H3.1v-5.6c-0.2,0.2-0.5,0.4-0.8,0.6s-0.7,0.4-0.9,0.5v-0.8c0.5-0.2,0.9-0.5,1.3-0.8s0.6-0.6,0.8-1H4
		V263.2z"/>
	<path class="st4" d="M10.8,262.4v0.8H6.1c0-0.2,0-0.4,0.1-0.6c0.1-0.3,0.3-0.6,0.6-1s0.6-0.7,1.1-1.1c0.8-0.6,1.3-1.1,1.6-1.5
		c0.3-0.4,0.4-0.7,0.4-1.1c0-0.3-0.1-0.6-0.4-0.9c-0.2-0.2-0.6-0.4-1-0.4c-0.4,0-0.8,0.1-1,0.4s-0.4,0.6-0.4,1.1l-0.9-0.1
		c0.1-0.7,0.3-1.2,0.7-1.5c0.4-0.4,0.9-0.5,1.6-0.5c0.7,0,1.2,0.2,1.6,0.6s0.6,0.9,0.6,1.4c0,0.3-0.1,0.6-0.2,0.8s-0.3,0.6-0.6,0.9
		s-0.7,0.7-1.4,1.3c-0.5,0.4-0.9,0.7-1,0.9c-0.1,0.2-0.3,0.3-0.4,0.5H10.8z"/>
</g>
<line class="st2" x1="20.4" y1="186.7" x2="14.4" y2="186.7"/>
<g class="st3">
	<path class="st4" d="M4,189.9H3.1v-5.6c-0.2,0.2-0.5,0.4-0.8,0.6s-0.7,0.4-0.9,0.5v-0.8c0.5-0.2,0.9-0.5,1.3-0.8s0.6-0.6,0.8-1H4
		V189.9z"/>
	<path class="st4" d="M9,189.9v-1.7H5.9v-0.8l3.3-4.6h0.7v4.6h1v0.8h-1v1.7H9z M9,187.3v-3.2l-2.2,3.2H9z"/>
</g>
<line class="st2" x1="20.4" y1="113.3" x2="14.4" y2="113.3"/>
<g class="st3">
	<path class="st4" d="M4,116.5H3.1v-5.6c-0.2,0.2-0.5,0.4-0.8,0.6s-0.7,0.4-0.9,0.5v-0.8c0.5-0.2,0.9-0.5,1.3-0.8s0.6-0.6,0.8-1H4
		V116.5z"/>
	<path class="st4" d="M10.8,111.1l-0.9,0.1c-0.1-0.3-0.2-0.6-0.3-0.8c-0.2-0.3-0.5-0.4-0.9-0.4c-0.3,0-0.5,0.1-0.7,0.2
		c-0.3,0.2-0.5,0.5-0.7,0.9s-0.2,0.9-0.2,1.7c0.2-0.3,0.5-0.6,0.8-0.7s0.6-0.2,1-0.2c0.6,0,1.1,0.2,1.5,0.6c0.4,0.4,0.6,1,0.6,1.7
		c0,0.4-0.1,0.9-0.3,1.3c-0.2,0.4-0.5,0.7-0.8,0.9s-0.7,0.3-1.2,0.3c-0.7,0-1.3-0.3-1.8-0.8c-0.5-0.5-0.7-1.4-0.7-2.7
		c0-1.4,0.3-2.4,0.8-3c0.4-0.5,1-0.8,1.8-0.8c0.6,0,1,0.2,1.4,0.5S10.7,110.6,10.8,111.1z M7.2,114.2c0,0.3,0.1,0.6,0.2,0.9
		s0.3,0.5,0.5,0.6c0.2,0.1,0.5,0.2,0.7,0.2c0.4,0,0.7-0.1,1-0.4s0.4-0.7,0.4-1.2c0-0.5-0.1-0.9-0.4-1.2c-0.3-0.3-0.6-0.4-1-0.4
		c-0.4,0-0.7,0.1-1,0.4C7.3,113.4,7.2,113.8,7.2,114.2z"/>
</g>
<line class="st2" x1="20.4" y1="40" x2="14.4" y2="40"/>
<g class="st3">
	<path class="st4" d="M4,43.2H3.1v-5.6c-0.2,0.2-0.5,0.4-0.8,0.6s-0.7,0.4-0.9,0.5v-0.8c0.5-0.2,0.9-0.5,1.3-0.8s0.6-0.6,0.8-1H4
		V43.2z"/>
	<path class="st4" d="M7.6,39.3c-0.4-0.1-0.6-0.3-0.8-0.6s-0.3-0.5-0.3-0.9c0-0.5,0.2-1,0.6-1.3S7.9,36,8.5,36
		c0.6,0,1.1,0.2,1.5,0.5c0.4,0.4,0.6,0.8,0.6,1.3c0,0.3-0.1,0.6-0.3,0.9c-0.2,0.2-0.4,0.4-0.8,0.6c0.4,0.1,0.8,0.4,1,0.7
		s0.3,0.7,0.3,1.1c0,0.6-0.2,1.1-0.6,1.5s-1,0.6-1.7,0.6s-1.3-0.2-1.7-0.6c-0.4-0.4-0.6-0.9-0.6-1.6c0-0.5,0.1-0.9,0.4-1.2
		C6.8,39.6,7.1,39.4,7.6,39.3z M7.1,41.1c0,0.3,0.1,0.5,0.2,0.7s0.3,0.4,0.5,0.5c0.2,0.1,0.5,0.2,0.8,0.2c0.4,0,0.8-0.1,1-0.4
		s0.4-0.6,0.4-1c0-0.4-0.1-0.8-0.4-1S9,39.7,8.5,39.7c-0.4,0-0.8,0.1-1,0.4S7.1,40.7,7.1,41.1z M7.4,37.8c0,0.3,0.1,0.6,0.3,0.8
		S8.2,39,8.6,39c0.3,0,0.6-0.1,0.8-0.3c0.2-0.2,0.3-0.5,0.3-0.8c0-0.3-0.1-0.6-0.3-0.8c-0.2-0.2-0.5-0.3-0.8-0.3
		c-0.3,0-0.6,0.1-0.8,0.3S7.4,37.5,7.4,37.8z"/>
</g>
</svg>
